<?xml version="1.0" encoding="UTF-8"?>
<svg id="Layer_1" xmlns="http://www.w3.org/2000/svg" version="1.1" viewBox="0 0 391.84 209.19">
  <!-- Generator: Adobe Illustrator 30.0.0, SVG Export Plug-In . SVG Version: 2.1.1 Build 123)  -->
  <defs>
    <style>
      .st0 {
        font-family: Montserrat-Bold, 'Montserrat Bold';
        font-weight: 700;
      }

      .st0, .st1 {
        font-size: 52.87px;
      }

      .st1 {
        font-family: Montserrat-Regular, 'Montserrat Regular';
      }
    </style>
  </defs>
  <text class="st0" transform="translate(-4.39 208.55)"><tspan x="0" y="0">K</tspan></text>
  <text class="st0" transform="translate(33.42 208.55)"><tspan x="0" y="0">O</tspan></text>
  <text class="st0" transform="translate(78.04 208.55)"><tspan x="0" y="0">M</tspan></text>
  <text class="st0" transform="translate(146.18 208.55)"><tspan x="0" y="0">C</tspan></text>
  <text class="st1" transform="translate(184.94 208.55)"><tspan x="0" y="0"> </tspan></text>
  <text class="st1" transform="translate(189.07 208.55)"><tspan x="0" y="0">K</tspan></text>
  <text class="st1" transform="translate(265.82 208.55)"><tspan x="0" y="0">R</tspan></text>
  <text class="st1" transform="translate(304.05 208.55)"><tspan x="0" y="0">M</tspan></text>
  <path d="M141.54,201.73c.24-1.06.18-2.14-.6-3.25-.38-.55-.82-1.03-1.36-1.51v-5.45c.64-.07,1.05-.7,1.05-1.65h0c0-.35,0-.93-.05-1.6h0c-.01-.35-.03-.67-.04-.93.06-.02.12-.04.18-.06.71-.24,1.4-.58,1.98-1.09.15-.13.28-.26.41-.41.12-.14.25-.31.35-.46.23-.34.35-.73.43-1.11.14-.76.1-1.52.03-2.26-.07-.74-.18-1.46-.3-2.18-.12-.72-.25-1.42-.37-2.12-.13-.7-.25-1.39-.4-2.07-.16-.68-.33-1.35-.62-1.98-.15-.31-.34-.62-.58-.87-.14-.14-.29-.24-.43-.32-.15-.08-.3-.16-.45-.22-.6-.26-1.2-.43-1.79-.57-.59-.14-1.16-.24-1.72-.3-.28-.03-.55-.05-.83-.05-.27,0-.54,0-.81.06-.26.05-.51.14-.74.24-.23.1-.44.22-.63.34-.78.49-1.36,1.05-1.8,1.54-.44.5-.72.94-.87,1.27-.08.16-.12.3-.16.4-.02.09-.04.13-.04.13h0s-.03.15-.03.15c-.01.05-.02.1-.03.17,0,.07-.02.15-.02.24-.03.31-.03.75,0,1.29l.84-.58-.81,1.09c.01.18.03.36.05.55l.88-.58-.83,1.1c.02.17.04.34.06.52l.89-.56-.82,1.09c.02.16.04.33.06.5l.88-.53-.81,1.07c.02.16.04.33.06.49l.86-.49-.79,1.04c.02.16.04.32.07.48l.84-.45-.76.99c.02.16.05.32.08.48l.8-.41-.71.92c.03.16.06.33.1.49l.73-.34-.63.8c.04.15.08.3.12.45.09.3.19.61.33.91.07.15.15.3.25.45.03.04.05.07.08.11.03.04.06.08.09.11l.04.04.02.02.03.03s.07.07.11.09c.31.22.64.32.98.42.13.03.25.06.38.09.04.18.12.48.2.83-.21.27-.33.61-.33.99,0,.4.14.78.39,1.07.21.24.49.4.79.44.05.08.11.15.17.22-.05.36-.24.74-.45,1.14-.38.75-.86,1.68-.22,2.6.44.64,1.19,1.08,1.92,1.5,0,0,.02,0,.02.01v7.16l-.45-1.89c-4.03.26-7.08,1.47-7.08,2.93v1.05c0,1.65,3.89,2.98,8.69,2.98s8.69-1.34,8.69-2.98v-1.05c0-1.27-2.31-2.36-5.57-2.79M140.94,198.89c.27.43.43.91.5,1.41-.07-.19-.13-.39-.2-.58-.1-.26-.24-.5-.37-.74-.23-.4-.53-.75-.75-1.15.3.34.6.68.84,1.07ZM140.28,198.95c.63.89.68,1.77.45,2.69-.37-.04-.76-.06-1.15-.08v-3.46c.26.27.48.55.7.85ZM140.14,190.06c-.05.26-.13.49-.24.73.07-.23.11-.45.12-.69,0-.28-.03-.57-.09-.85-.08-.4-.17-.79-.27-1.19l-1.4.02c-.05.47-.1.94-.18,1.41-.05.33-.14.65-.28.96-.1.25-.28.47-.44.68.11-.21.23-.41.31-.64.1-.32.13-.64.15-.97.01-.48-.01-.95-.03-1.43h0c-.02-.39-.04-.77-.05-.98h2.33c0,.17.02.42.03.7.03.45.07.9.08,1.36.01.29.01.61-.04.9ZM138.85,204.26c0,.15-.23.14-.23,0,0-1.81.02-3.61.03-5.42.02-2.94.03-5.88.03-8.82v-1.53c.17,1.3.22,2.61.23,3.91.02,1.51.02,3.02.03,4.53,0,1.49,0,2.97-.03,4.46,0,.65-.02,1.31-.03,1.96,0,.27-.01.53-.02.8,0,.04,0,.08,0,.11ZM143.42,181.5c-.24,0-.47,0-.71,0-.3.02-.61.06-.91.09,0-.33,0-.67-.03-1,.25.05.5.11.75.17.29.08.57.18.85.28.02.15.04.3.06.45ZM143.28,180.49c-.24-.01-.49-.02-.73,0-.26.01-.52.03-.78.06-.02-.32-.05-.65-.08-.97.52.14,1.02.29,1.53.49.02.14.05.29.07.43ZM143.12,179.49c-.48-.02-.96-.02-1.44,0-.03-.32-.07-.64-.11-.95.5.15.99.32,1.48.52.02.14.05.29.07.43ZM142.87,178.06s0,0,0,0c.03.15.05.29.08.44-.46-.03-.93-.04-1.39-.03-.04-.32-.08-.63-.12-.95.49.17.96.35,1.43.55ZM142.69,177.04c.03.15.05.29.08.44-.45-.04-.9-.06-1.35-.07-.04-.31-.09-.63-.14-.94.47.18.94.37,1.4.59,0,0,0-.01,0-.02ZM142.58,176.47c-.44-.05-.88-.08-1.32-.1-.06-.32-.12-.65-.19-.97.48.2.96.42,1.43.65.03.14.06.28.08.42ZM142.26,175.01c.04.15.08.29.11.44-.44-.06-.88-.1-1.32-.14-.08-.35-.18-.69-.29-1.04.51.23,1,.47,1.5.73ZM134.65,172.6c.18-.07.37-.13.56-.07.34.1.47.55.48.86-.18-.2-.25-.57-.51-.69-.14-.07-.33-.04-.47-.01-.13.02-.27.05-.4.07,0-.04.3-.14.34-.15ZM134.88,174.58c.43-.31.89-.53,1.4-.68h0c1.12-.1,2.24.11,3.37.09.04.35.09.7.13,1.06-.05-.03-.25-.12-.27-.13-.14-.05-.28-.1-.42-.14-.32-.1-.64-.18-.97-.24-.56-.1-1.15-.17-1.71-.09-.04,0-.08.01-.13.02-.45.06-.88.18-1.28.38-.48.23-.92.5-1.36.79.39-.39.8-.74,1.25-1.07ZM136.03,181.18c.38-.19.76-.35,1.17-.47,0,0,0,0,0,0,.58-.1,1.17-.15,1.75-.19.3-.02.6-.04.91-.07.14,0,.27-.02.41-.03,0,0,.15-.02.21-.03,0,.01,0,.02,0,.04.05.34.11.67.16,1.01-1.07-.37-2.28-.37-3.39-.17,0,0-.01,0-.02,0-.03,0-.06,0-.09,0-.19.02-.39.06-.58.1-.75.19-1.44.51-2.14.85.51-.38,1.02-.77,1.6-1.05-.09.04.09-.05,0,0ZM140.3,180.31c-.13-.04-.27-.08-.4-.11-.3-.06-.59-.11-.89-.14-.57-.05-1.15-.04-1.72.05-.08.01-.16.03-.24.05-.03,0-.05,0-.06,0-.19.02-.37.06-.56.1-.75.18-1.44.53-2.13.89.5-.39,1.01-.79,1.57-1.08-.02.01-.04.02,0,0,.02,0,.02-.01.03-.01,0,0-.01,0-.02.01.37-.19.74-.35,1.13-.46,0,0,0-.01,0-.02.33-.06.68-.08,1.01-.11.57-.04,1.13-.07,1.7-.1.15,0,.3-.01.45-.03.02,0,.1,0,.14-.02.05.34.1.68.16,1.03-.05-.02-.14-.04-.16-.04ZM140.3,179.28c-.27-.1-.55-.17-.84-.23-.68-.14-1.4-.18-2.09-.11-.16.02-.31.04-.46.07,0,0,0,0,0,0-.01,0-.03,0-.06,0-.21.02-.41.06-.61.12-.74.18-1.42.55-2.08.91.49-.4.99-.8,1.54-1.1-.02,0-.03.01,0,0,.04-.02.03-.01,0,0,.36-.19.71-.35,1.1-.46,0,0,0-.01,0-.02.33-.06.67-.07,1-.09.59-.03,1.17-.04,1.76-.06.15,0,.31,0,.46-.02.04,0,.09,0,.11-.02.05.34.1.68.15,1.03,0,0,0,0,0,0ZM140.11,178.2c-.28-.11-.57-.18-.86-.24-.67-.14-1.36-.19-2.05-.14-.15.01-.3.03-.45.07,0,0,0,0,0,0,0,0,0,0,0,0-.04,0-.08.01-.13.02-.19.03-.37.07-.56.12-.72.19-1.39.57-2.03.93.48-.41.97-.82,1.52-1.13-.02,0-.03.01,0,0,.04-.02.03-.01,0,0,.36-.2.72-.36,1.11-.48,0,0,0-.01,0-.02.36-.07.75-.06,1.11-.07.63-.02,1.26,0,1.88-.02.08,0,.16,0,.24,0,.03,0,.08,0,.11-.01.04.34.08.68.13,1.02,0,0-.02-.01-.04-.02ZM139.79,177.07c-.3-.1-.61-.18-.92-.25-.64-.13-1.31-.18-1.96-.13-.1,0-.2.02-.3.04,0,0,0,0,0-.01-.05.01-.1.02-.12.03-.2.03-.4.08-.59.13-.72.2-1.37.58-2,.96.47-.42.95-.83,1.5-1.15-.01,0-.02.01,0,0,.04-.02.03-.02.01,0,.37-.21.73-.37,1.14-.49,0,0,0,0,0-.01.11-.01.22,0,.33-.03.32-.02.64-.02.96-.02.64,0,1.27.03,1.91.02.03,0,.13,0,.14-.02.04.35.08.69.12,1.04-.05-.04-.21-.09-.23-.1ZM139.86,176.09c-.11-.06-.24-.1-.37-.14-.3-.1-.61-.18-.92-.25-.61-.13-1.26-.2-1.88-.13-.07,0-.14.02-.21.03,0,0,0,0,0,0-.05.01-.1.02-.15.02-.19.01-.38.07-.56.13-.73.21-1.38.6-2.02,1.01.46-.43.93-.85,1.48-1.18-.01,0-.02.01,0,0,.22-.13.44-.26.67-.35.17-.07.33-.12.5-.17,0,0,0,0,0-.01.12-.02.25-.02.38-.02.35-.02.71,0,1.06,0,.37.02.75.03,1.12.04.16,0,.33,0,.49.01.04,0,.25.03.3,0,.04.35.08.69.12,1.04,0,0-.01-.01-.03-.02ZM132.78,180.98c-.19-1.47-.36-2.94-.41-4.42-.02-.47-.02-.93-.01-1.4.09,1.28.25,2.56.41,3.84.18,1.45.34,2.91.55,4.36.08.52.16,1.03.31,1.54-.53-1.22-.68-2.6-.85-3.91ZM134.19,182.53c-.15-.71-.27-1.42-.37-2.14-.2-1.45-.36-2.91-.45-4.37-.03-.53-.05-1.05-.03-1.58.12,1.24.28,2.48.43,3.71.18,1.46.34,2.93.57,4.39.08.56.17,1.11.32,1.65-.22-.54-.36-1.11-.48-1.68ZM135.69,186.86c-.1.02-.2.04-.3.05.85-.46,1.72-1.28,1.95-2.17.18-.71.18-1.47.09-2.34-.15.02-.3.04-.45.06.02.44.04.87.02,1.31,0,.29-.05.59-.14.86-.07.21-.16.39-.26.59.07-.2.13-.39.17-.6.06-.27.05-.57.02-.85-.04-.41-.12-.82-.19-1.22-.71.18-1.38.48-2.05.79.42-.29.83-.59,1.27-.84.49-.28.99-.5,1.53-.65,0,0,0,0,0,0,.03,0,.06-.01.09-.02.58-.1,1.17-.17,1.76-.23.47-.05.95-.07,1.42-.13.03.24.07.48.09.72.02-.2.03-.39.03-.59,0-1.43-.19-2.88-.38-4.3-.17-1.28-.37-2.59-.81-3.81.02.16.05.32.07.48,0,0,0,.02,0,.03-.16-.07-.32-.14-.48-.2-.64-.23-1.33-.41-2.01-.47-.31-.03-.66-.06-.98,0-.04-.22-.09-.43-.14-.61-.24-.86-.81-.65-1.44-.52.34-.2.71-.37,1.12-.45.14-.02.3-.04.45-.04.5.11.84.47.97.97-.01-.38-.15-.71-.39-.96.16,0,.31.02.48.04.05,0,.11.01.16.02.44.15.71.59.84,1.05-.02-.33-.11-.66-.29-.94,0-.01-.02-.02-.03-.04.24.04.48.09.72.14.37.19.62.58.73.98-.01-.31-.1-.61-.26-.86.22.06.45.12.67.19.32.22.53.63.65.99-.03-.29-.1-.59-.24-.85.14.05.28.11.42.17.01,0,.03.01.04.02.35.25.59.67.72,1.08-.03-.28-.1-.56-.23-.81.08.05.15.11.21.17.2.21.37.48.5.76.09.2.18.41.25.63-.44-.07-.89-.12-1.34-.17-.07-.22-.16-.45-.25-.67.03.16.06.32.09.48.26,1.42.41,2.85.6,4.28.1.73.21,1.46.33,2.18.09.59.2,1.17.25,1.76.02-.17.03-.35.03-.53,0-.05,0-.09,0-.14.3.05.59.11.88.18.27.07.53.15.79.24.06.7.09,1.42-.03,2.09-.07.34-.18.67-.36.93-.11.16-.2.28-.32.41-.12.13-.24.25-.37.37-.32.28-.67.51-1.05.69.11-.08.22-.17.33-.26.43-.38.8-.86,1.02-1.39.25-.6.29-1.24.17-1.88.02.59-.08,1.16-.35,1.69-.24.46-.61.87-1.03,1.18-.31.24-.65.42-1,.59.13-.1.25-.21.37-.32.83-.79,1.27-2,1.07-3.14,0,.25,0,.5-.06.74-.26,1.17-1.08,2.14-2.15,2.66-.11.05-.22.1-.33.15.12-.09.23-.2.34-.3.86-.83,1.33-2.13,1.14-3.31,0,.26-.01.51-.07.77-.13.57-.37,1.16-.75,1.62-.17.2-.34.42-.55.58-.2.16-.41.31-.63.45-.18.11-.37.2-.57.29.08-.07.16-.14.23-.21.5-.49.87-1.12,1.08-1.79.18-.56.28-1.18.19-1.76.03.57-.13,1.16-.36,1.68-.27.61-.67,1.16-1.2,1.57-.28.22-.58.38-.89.51.07-.07.15-.14.22-.21.48-.52.81-1.15,1.02-1.83.17-.57.27-1.2.16-1.79.02.45-.1.9-.25,1.33-.18.53-.45,1.02-.79,1.46-.33.43-.76.8-1.26,1.03-.24.11-.49.2-.75.25ZM135.87,190.47c.25-.08.48-.18.64-.39.17-.19.26-.45.27-.7,0-.27-.07-.55-.24-.76-.18-.22-.4-.34-.66-.42.7-.15,1.24.49,1.26,1.14-.02.34-.13.65-.39.89-.24.22-.56.31-.88.25ZM135.7,194.49c-.39-.61-.1-1.34.27-1.88-.24.51-.53,1.16-.23,1.71.26.54.8.9,1.29,1.21-.52-.22-1.02-.56-1.33-1.04ZM135.99,194.33c-.34-.49-.12-.99.28-1.77.17-.34.35-.69.45-1.05.03,0,.06.02.09.02.01,0,.02,0,.04,0,.05.01.09.02.14.03.01,0,.03,0,.04,0,.06,0,.13.02.2.02,0,0,.02,0,.03,0v3.75c-.52-.31-1-.64-1.27-1.03ZM142.72,207.07c-1.44.31-2.94.43-4.41.41-1.06-.02-2.12-.09-3.16-.28-.82-.15-1.61-.35-2.4-.62,2.67.56,5.39.67,8.1.44,1-.08,2-.23,2.97-.48.88-.22,1.74-.51,2.52-.98-1.05.81-2.34,1.23-3.62,1.5Z"/>
  <text class="st1" transform="translate(228.98 208.55)"><tspan x="0" y="0">A</tspan></text>
  <text class="st0" transform="translate(266.89 208.55)"><tspan x="0" y="0"> </tspan></text>
  <text class="st1" transform="translate(352.04 208.55)"><tspan x="0" y="0">A</tspan></text>
  <text class="st0" transform="translate(389.95 208.55)"><tspan x="0" y="0"> </tspan></text>
  <path d="M141.88,141.42c0,.59-.48,1.07-1.07,1.07s-1.07-.48-1.07-1.07.48-1.07,1.07-1.07,1.07.48,1.07,1.07"/>
  <path d="M144.89,142.76c0,.59-.48,1.07-1.07,1.07s-1.07-.48-1.07-1.07.48-1.07,1.07-1.07,1.07.48,1.07,1.07"/>
  <path d="M148.14,142.9c0,.59-.48,1.07-1.07,1.07s-1.07-.48-1.07-1.07.48-1.07,1.07-1.07,1.07.48,1.07,1.07"/>
  <path d="M151.36,142.2c0,.59-.48,1.07-1.07,1.07s-1.07-.48-1.07-1.07.48-1.07,1.07-1.07,1.07.48,1.07,1.07"/>
  <path d="M154.27,140.61c0,.59-.48,1.07-1.07,1.07s-1.07-.48-1.07-1.07.48-1.07,1.07-1.07,1.07.48,1.07,1.07"/>
  <path d="M156.64,138.47c0,.59-.48,1.07-1.07,1.07s-1.07-.48-1.07-1.07.48-1.07,1.07-1.07,1.07.48,1.07,1.07"/>
  <path d="M158.16,135.46c0,.59-.48,1.07-1.07,1.07s-1.07-.48-1.07-1.07.48-1.07,1.07-1.07,1.07.48,1.07,1.07"/>
  <path d="M158.58,132.17c0,.59-.48,1.07-1.07,1.07s-1.07-.48-1.07-1.07.48-1.07,1.07-1.07,1.07.48,1.07,1.07"/>
  <path d="M157.91,128.87c0,.59-.48,1.07-1.07,1.07s-1.07-.48-1.07-1.07.48-1.07,1.07-1.07,1.07.48,1.07,1.07"/>
  <path d="M127.59,119.13s-2.55,21.2,11.47,21.21c-4.41-4.28-5.41-6.56-5.26-9.54,3.08,1.7,5.89-1.81,4.78-6.53-2.65,2.23-9.13.69-10.99-5.15"/>
  <path d="M136.16,113.46s3.68-2.39,5.27,2.09c1.59,4.48-7.99,8.96-9.54.84-1.55-8.12,15.4-13.23,21.1-15.07,5.69-1.84,34.91-9.54,35.19-23.58,0,0-1.88,10.35-20.78,16.33-18.9,5.98-33.29,10.79-36.55,17.93-3.26,7.13,3.13,13.06,8.89,9.17,5.77-3.89,1.09-11.39-3.59-7.71"/>
  <path d="M153.3,108.66s3.33-1.46,3.54,2.29c.21,3.75-8.82,5.28-7.71-2.02,1.11-7.3,20.22-6.95,30.02-15.08,9.8-8.13,9.38-11.74,9.38-11.74,0,0-3.47,7.92-14.59,12.99-11.12,5.07-21.82,5.42-25.57,10.91-3.75,5.49.14,10.28,5.63,9.45,5.49-.83,4.79-9.45-.69-6.81"/>
  <path d="M152.12,127.8s-.91,4.25-4.59,4.37c-3.68.12-5.35-4.4-2.29-9.33,3.06-4.93,11.67-5.63,17.72.7,6.05,6.32,3.54,21.05-8.13,26.27-11.67,5.21-24.53-2.37-29.88-11.33-5.35-8.96-3.82-18.76-1.32-24.38,2.5-5.63,7.85-14.52,22.58-19.46,14.73-4.93,31.27-10.01,37.38-19.66,6.11-9.66,6.25-18.2,3.47-26.13-2.78-7.92-9.31-17.37-18.41-17.16-5.28.28-7.92,8.48-1.53,10.98-9.03,2.22-11.39-5.42-9.87-9.94,1.53-4.52,4.45-5.28,4.45-5.28,0,0-7.5-.9-10.14,5.56-2.64,6.46-.49,7.99-4.31,9.66-3.82,1.67-6.95,3.06-6.39,7.85.56,4.79,4.93,9.03,9.38,7.5,4.45-1.53,4.45-4.38,8.06-1.53,3.61,2.85-1.39,10.35-10.28,7.92-8.89-2.43-14.04-9.59-14.04-9.59,0,0-7.16,11.4-.7,18.34,6.46,6.95,12.85,2.01,12.85,2.01,0,0-7.64,7.72-14.38,1.53-6.74-6.19-4.52-20.16-2.29-27.24,2.22-7.09,8.76-18.22,19.18-22.07,10.42-3.85,24.32-1.9,32.73,6.92,8.41,8.82,11.74,21.89,9.31,30.92-2.43,9.03-6.14,18.07-22.98,24.67-16.84,6.6-22.88,7.04-33.03,14.66-10.14,7.62-10.35,20.78-8.48,27.24,1.88,6.46,10.08,17.23,21.54,15.84,11.46-1.39,15.84-12.81,14.45-16.55-1.39-3.74-6.8-8.82-10.07-3.29"/>
  <path d="M118,122.4s2.15-22.82,32.29-31.25c30.14-8.43,33.58-20.57,33.58-20.57,0,0-17.23,15.57-19.87.7-5.56-1.11-12.09,10.42-2.08,14.59-15.56-4.59-39.33-.31-43.91,36.53"/>
  <path d="M131.26,40.98s-6.36,10.01-6.42,19.27c-.06,9.26,1.76,12.03,1.76,12.03,0,0-1.01-2.46-4.66-5.04-3.65-2.58-2.52-5.6-2.52-5.6,0,0-2.2,1.32-2.14-1.26.06-2.58,1.76-4.03,1.76-4.03,0,0-2.64-.13-.76-2.39,1.89-2.27,3.06-3.02,3.06-3.02,0,0-6.08,3.27-11.12-1.45,5.48,1.51,15.88-4.18,21.03-8.5"/>
  <path d="M165.45,25.51s-10.45-4.43-24.94,5.52c-8.69,6.3-14.23,15.24-21.54,14.61-7.31-.63-11.97-5.86-9.57-12.53,1.64-4.22,7.18-5.23,8.63-1.13,1.45,4.09-3.78,5.67-4.03,6.55-.25.88.18,9.68,15.81-.38-7.94.76-9.76-4.35-9.45-7.31.31-2.96,4.97-9.26,10.39-5.86,3.27,2.64,1.76,7.43-1.64,6.49-3.4-.94-1.76-3.97-.63-3.97s.5-2.16-1.13-1.99c-1.64.17-4.28,1.81-3.21,5.71,1.07,3.9,6.55,3.9,11.21.5,4.66-3.4,16.5-11.73,30.1-6.21"/>
  <path d="M161.92,22.03s-13.29-2.27-24.81,6.11c-1.89.32-1.01-1.39-1.01-1.39,0,0,8.69-8.12,26.13-6.42,1.32,1.07-.32,1.7-.32,1.7"/>
  <path d="M135.54,25.51s-4.91-7.51-9.45-9.78c.44-1.76,4.41.32,4.41.32,0,0,.5-1.76,2.46-.57,0,0,1.13,1.57-.31,2.58,1.76,2.58,4.03,2.65,5.04,1.26,1.01-1.39.25-4.3.25-4.3,0,0-2.49-.42-2.03-2.56.46-2.14,4.68-.69,2.66,1.89,3.46,2.83,6.23,1.01,6.55-1.07.31-2.08.38-3.34.38-3.34,0,0-1.76.94-2.39-1.13-.63-2.08,1.95-2.02,1.95-2.02,0,0-2.27-1.01-1.2-2.9l1.07-1.89s1.64,1.26,1.89,1.57c.25.32.88,2.2-.32,2.96,1.64-.63,2.27.38,2.27,1.13s-.06,2.08-1.57,1.83c.76,4.35,3.72,4.6,5.16,3.78,1.45-.82,2.58-2.9,2.58-2.9,0,0-1.39-1.01-.88-2.33.5-1.32,2.27-1.26,2.71-.44.44.82.19,2.52-.82,2.64.76,4.85,2.33,4.49,3.9,3.51,1.57-.99,2.08-2.62,2.08-2.62,0,0-1.83-.69-1.51-2.65.31-1.95,2.71-.63,2.71-.63,0,0,.63-2.33,3.59-2.39-3.21,4.53-4.47,13.67-4.47,13.67,0,0-14.61-2.54-26.7,6.38"/>
  <path d="M155.23,127.22c-.72.19-1.3.73-1.52,1.65-1.25,4.31-5.77,6.22-8.82,4.37-.63-.38-1.2-.94-1.68-1.64-.11,4.05-.42,6.68-.93,7.89.33.26.6.59.77.98.24-.08.5-.12.76-.12.68,0,1.3.28,1.73.74.41-.34.94-.55,1.52-.55.45,0,.87.13,1.22.34.43-.64,1.16-1.07,2-1.07.27,0,.52.05.76.13.29-.9,1.14-1.56,2.14-1.56.04,0,.07,0,.11,0,.04-1.03.76-1.87,1.72-2.11-.1-.25-.15-.52-.15-.81,0-.75.37-1.41.94-1.81-.34-.4-.56-.91-.56-1.48,0-.49.16-.94.42-1.31-.68-.4-1.14-1.14-1.14-1.98,0-.64.26-1.22.69-1.64h0Z"/>
  <path d="M143.26,106.73v6.18c1,1.98,1.24,4.99,0,7.25v2.89c.63-1.09,1.52-2.2,2.74-3.27,1.78-1.58,3.84-2.33,5.96-2.5-5.18,0-9.03-5.3-6.49-11.08-.65.06-1.4.25-2.21.52"/>
  <path d="M172.34,75.66c.37-.08.73-.18,1.1-.3v-29.99c0-5.42.27-9.08.81-11-4.46-2.24-7.8.3-7.92,1.33-.19,1.58-.28,4.91,5.37,7.23-2.5,2.78-12.14,3.98-15.29-2.32-3.15-6.3.93-11.21.93-11.21,0,0-4.54,1.76-5.19,8.43-.65,6.67-4.98,6.2-8.15,8.62-.3.23-.54.51-.73.82v4.59c.86,2.37,2.7,4.57,4.43,4.77,3.24.38,5.84-5.55,10.65-2.49,4.82,3.06,4.54,11.77-5.28,13.25-3.48.52-6.87-.55-9.81-2.16v9.6c3.21-.65,6.53-2.26,8.88-3.46-1.49,3.28-4.93,6.72-8.88,8.68v2.79c3.36-.72,7.18-.86,11.5-.1-.76-5.98.9-14.04,9.87-13.97l1.39.28s-.52,8.11,6.32,6.6"/>
  <path d="M167.92,24.48c3.48.65,7.27,2.11,10.85,4.46,2.2-1.08,5.3-1.63,9.29-1.63v-3.42h-20.55c.21.2.36.4.41.59"/>
  <path d="M174.54,140.14c-.74-1.6-1.11-5.68-1.11-12.22v-27.94c-8.67,3.97-17.67,5.76-17.67,5.76,0,0,8.59,4.82,1.32,9.82-1.49,1.03-3,1.56-4.42,1.69,4.96-.07,10.09,2.96,12.58,6.35,3.28,4.46,5.3,18.15-6.53,25.79h30.17v-3.42c-4.63,0-7.99-.57-10.09-1.71-2.1-1.14-3.52-2.51-4.26-4.12"/>
  <path d="M260.52,143.01c-4.5-2.78-9.87-8.05-16.1-15.83l-44.15-55.25,36.74-29.43c9.01-7.28,14.76-11.55,17.26-12.82,2.5-1.26,5.94-2.05,10.32-2.36v-3.42h-48.96v3.42c5.37.19,8.73.62,10.09,1.3,2.65,1.36,3.98,3.21,3.98,5.55,0,3.15-3.24,7.34-9.72,12.59l-27.03,21.87c-1.22,4.5-2.97,6.89-2.97,6.89,0,0,4.03,7.57-5,16.89-.86.88-1.82,1.72-2.85,2.51l24.71,31.06c5.68,7.16,8.51,12.03,8.51,14.62,0,1.36-.6,2.5-1.8,3.42-1.2.93-3.87,1.57-8.01,1.94v3.42h65.34v-3.42c-3.64,0-7.1-.99-10.37-2.96"/>
</svg>